<?xml version="1.0" standalone="no"?>
<!DOCTYPE svg PUBLIC "-//W3C//DTD SVG 20010904//EN"
 "http://www.w3.org/TR/2001/REC-SVG-20010904/DTD/svg10.dtd">
<svg version="1.0" xmlns="http://www.w3.org/2000/svg"
 width="300.000000pt" height="300.000000pt" viewBox="0 0 300.000000 300.000000"
 preserveAspectRatio="xMidYMid meet">
<metadata>
Created by potrace 1.10, written by Peter Selinger 2001-2011
</metadata>
<g transform="translate(0.000000,300.000000) scale(0.100000,-0.100000)"
fill="#000000" stroke="none">
<path d="M1455 2785 c-34 -33 -32 -70 5 -105 l30 -28 0 -301 c0 -261 2 -301
15 -301 13 0 15 40 15 301 l0 300 30 26 c38 32 41 79 7 111 -31 29 -72 28
-102 -3z m73 -48 c4 -22 -27 -35 -38 -16 -10 15 7 42 24 36 6 -2 12 -11 14
-20z"/>
<path d="M1684 2567 c-37 -32 -37 -81 -1 -113 24 -20 27 -31 27 -81 0 -56 -2
-61 -40 -98 l-40 -39 0 -94 c0 -81 2 -93 16 -90 14 3 17 16 15 88 l-2 85 40
40 c40 38 41 41 41 105 0 62 2 66 30 82 25 14 30 23 30 57 0 31 -6 44 -26 60
-34 27 -57 26 -90 -2z m66 -57 c0 -13 -7 -20 -20 -20 -13 0 -20 7 -20 20 0 13
7 20 20 20 13 0 20 -7 20 -20z"/>
<path d="M1048 2563 c-47 -29 -46 -113 1 -128 20 -6 21 -14 21 -143 l0 -138
75 -74 c57 -56 78 -71 86 -63 9 9 -5 29 -60 84 l-71 71 0 129 c0 76 4 129 10
129 5 0 18 10 30 22 58 62 -20 156 -92 111z m60 -60 c-2 -10 -12 -18 -23 -18
-11 0 -21 8 -23 18 -3 13 3 17 23 17 20 0 26 -4 23 -17z"/>
<path d="M1910 2572 c-55 -17 -70 -95 -25 -130 24 -19 25 -23 25 -148 l0 -128
-67 -68 c-50 -50 -64 -71 -56 -79 9 -9 29 7 82 62 l71 74 0 138 c0 108 3 137
13 137 42 0 64 92 30 122 -21 18 -52 27 -73 20z m40 -71 c0 -26 -17 -36 -35
-21 -18 15 -8 40 16 40 12 0 19 -7 19 -19z"/>
<path d="M1246 2539 c-19 -15 -26 -30 -26 -55 0 -33 28 -74 50 -74 6 0 10 -31
10 -73 0 -72 0 -73 41 -112 40 -40 40 -41 37 -105 -2 -51 0 -65 11 -65 11 0
16 18 18 68 4 68 4 69 -36 113 -39 41 -41 47 -41 108 0 57 3 65 25 80 32 21
40 56 21 94 -24 47 -66 55 -110 21z m61 -40 c16 -16 5 -39 -18 -39 -12 0 -19
7 -19 18 0 31 17 41 37 21z"/>
<path d="M562 2487 c-49 -52 -12 -133 58 -124 34 4 41 -1 252 -217 178 -181
218 -218 224 -202 5 14 -37 62 -209 234 -186 187 -215 220 -206 235 8 13 7 27
-1 48 -22 53 -81 66 -118 26z m66 -55 c2 -14 -2 -22 -12 -22 -19 0 -29 17 -22
36 8 22 30 12 34 -14z"/>
<path d="M2354 2484 c-21 -20 -25 -32 -22 -62 5 -36 2 -40 -212 -255 -146
-147 -212 -221 -205 -227 7 -6 83 63 230 210 212 212 219 218 252 213 71 -12
110 71 58 122 -31 32 -69 32 -101 -1z m74 -47 c4 -21 -25 -34 -40 -19 -8 8 -8
16 2 27 16 19 34 15 38 -8z"/>
<path d="M362 2049 c-11 -4 -28 -22 -37 -38 -14 -28 -14 -34 0 -61 28 -55 93
-60 128 -10 15 21 21 22 205 20 l190 -1 80 -82 c65 -65 82 -78 87 -65 5 13
-15 39 -71 98 l-78 80 -196 0 -196 0 -21 29 c-23 31 -58 42 -91 30z m55 -72
c-2 -7 -13 -13 -25 -15 -16 -3 -22 2 -22 16 0 10 3 22 6 25 10 10 46 -13 41
-26z"/>
<path d="M2558 2020 l-22 -30 -191 0 -190 0 -85 -85 c-59 -60 -81 -88 -74 -95
8 -8 34 13 89 69 l78 80 188 3 c173 3 190 2 195 -15 3 -9 19 -24 36 -33 74
-38 144 53 88 114 -32 34 -84 30 -112 -8z m82 -45 c0 -15 -19 -24 -37 -17 -16
5 -17 24 -1 40 13 13 38 -2 38 -23z"/>
<path d="M418 1866 c-25 -19 -37 -57 -26 -85 21 -57 82 -68 121 -21 24 28 30
30 98 30 l71 0 62 -64 61 -65 88 -3 c77 -3 87 -1 87 15 0 15 -10 17 -78 17
l-78 0 -64 65 -64 65 -83 0 c-46 0 -83 4 -83 10 0 5 -10 18 -22 30 -25 23 -65
26 -90 6z m60 -59 c4 -22 -27 -35 -38 -16 -10 15 7 42 24 36 6 -2 12 -11 14
-20z"/>
<path d="M2453 1868 c-13 -6 -25 -19 -28 -29 -5 -15 -16 -19 -53 -19 -45 0
-51 -3 -112 -65 l-64 -65 -83 0 c-72 0 -83 -2 -83 -17 0 -16 10 -18 87 -15
l88 4 65 64 c59 57 70 64 106 64 34 0 43 -4 52 -25 23 -49 104 -45 126 7 17
39 11 63 -22 88 -27 22 -46 24 -79 8z m55 -66 c3 -16 -2 -22 -16 -22 -24 0
-35 23 -19 39 16 16 31 8 35 -17z"/>
<path d="M1650 1798 c0 -47 1 -48 30 -48 l30 0 0 -235 0 -235 60 0 60 0 0 283
0 282 -90 0 -90 0 0 -47z m140 -23 c3 -16 5 -121 5 -232 0 -154 -3 -205 -13
-215 -11 -11 -16 -10 -27 6 -11 15 -14 61 -13 213 1 188 0 194 -22 217 -28 31
-18 48 28 44 32 -3 37 -7 42 -33z"/>
<path d="M1288 1793 c-38 -111 -176 -491 -182 -502 -5 -8 11 -11 58 -11 l64 0
19 58 20 57 104 3 104 3 18 -61 17 -60 65 0 64 0 -28 78 c-16 42 -62 168 -103
279 l-73 203 -66 0 -65 0 -16 -47z m130 -16 c8 -16 31 -76 52 -135 21 -59 54
-152 74 -207 20 -55 36 -103 36 -107 0 -5 -9 -8 -20 -8 -14 0 -26 14 -41 45
-26 55 -46 67 -110 67 -51 0 -68 12 -23 16 14 1 39 12 56 23 33 24 33 28 5
128 -16 55 -60 131 -76 131 -12 0 -51 -54 -51 -69 0 -6 -5 -11 -11 -11 -5 0
-7 -4 -4 -10 3 -5 -1 -23 -9 -39 -9 -16 -18 -47 -22 -69 -5 -34 -3 -42 17 -56
13 -9 31 -16 41 -16 10 0 18 -7 18 -15 0 -11 -11 -15 -37 -15 -47 -1 -64 -13
-92 -68 -29 -57 -56 -58 -47 -2 3 23 10 49 15 58 18 35 41 93 41 102 0 5 5 21
12 37 6 15 13 36 15 46 1 10 9 30 17 45 8 15 19 46 25 68 24 89 90 123 119 61z
m-14 -160 c16 -50 31 -100 34 -109 4 -16 -4 -18 -67 -18 -39 0 -71 3 -71 6 0
3 14 46 30 96 17 49 30 96 30 104 0 37 18 5 44 -79z"/>
<path d="M75 1585 c-30 -30 -32 -64 -4 -99 30 -38 81 -36 111 4 l22 30 388 0
c338 0 388 2 388 15 0 13 -50 15 -386 15 l-386 0 -28 30 c-35 37 -72 39 -105
5z m73 -48 c4 -20 -25 -34 -40 -19 -15 15 -1 44 19 40 10 -2 19 -11 21 -21z"/>
<path d="M2853 1598 c-13 -6 -25 -19 -28 -29 -6 -18 -25 -19 -401 -19 -344 0
-394 -2 -394 -15 0 -13 51 -15 395 -15 338 0 395 -2 395 -14 0 -21 40 -46 72
-46 65 0 93 89 42 129 -29 23 -48 25 -81 9z m55 -66 c3 -16 -2 -22 -16 -22
-24 0 -35 23 -19 39 16 16 31 8 35 -17z"/>
<path d="M2030 1398 c0 -16 11 -18 83 -18 l83 0 64 -65 64 -65 68 0 c53 0 68
-3 68 -14 0 -19 39 -46 66 -46 35 0 74 37 74 71 0 36 -39 79 -72 79 -29 0 -68
-26 -68 -46 0 -11 -15 -14 -63 -14 l-63 0 -63 64 -64 65 -89 3 c-78 3 -88 1
-88 -14z m515 -133 c0 -11 -7 -21 -16 -23 -18 -3 -33 23 -23 39 10 17 39 5 39
-16z"/>
<path d="M740 1345 c-62 -63 -66 -65 -115 -65 -45 0 -54 3 -73 30 -17 23 -30
30 -57 30 -38 0 -75 -37 -75 -75 0 -67 92 -95 134 -42 19 24 29 27 82 27 l60
0 64 65 64 65 78 0 c63 0 78 3 78 15 0 12 -16 15 -88 15 l-88 0 -64 -65z
m-222 -78 c4 -20 -25 -34 -40 -19 -15 15 -1 44 19 40 10 -2 19 -11 21 -21z"/>
<path d="M925 1199 l-80 -79 -168 0 -169 0 -28 30 c-35 37 -72 39 -105 5 -32
-31 -32 -69 0 -100 33 -34 70 -32 105 5 l28 30 179 0 179 0 77 79 c42 43 77
83 77 89 0 29 -23 15 -95 -59z m-477 -92 c4 -20 -25 -34 -40 -19 -15 15 -1 44
19 40 10 -2 19 -11 21 -21z"/>
<path d="M1997 1267 c-4 -10 22 -43 76 -96 l82 -81 188 0 189 0 28 -30 c17
-19 38 -30 54 -30 34 0 76 41 76 75 0 33 -42 75 -75 75 -16 0 -38 -12 -57 -30
l-30 -30 -181 0 -182 0 -81 81 c-60 59 -83 77 -87 66z m641 -160 c4 -20 -25
-34 -40 -19 -15 15 -1 44 19 40 10 -2 19 -11 21 -21z"/>
<path d="M867 920 c-212 -213 -219 -218 -252 -213 -67 11 -113 -79 -65 -127
49 -49 138 -4 127 65 -5 28 10 45 215 251 177 178 217 223 205 232 -11 9 -56
-32 -230 -208z m-239 -283 c4 -20 -25 -34 -40 -19 -15 15 -1 44 19 40 10 -2
19 -11 21 -21z"/>
<path d="M1918 1128 c-4 -8 76 -96 208 -231 213 -217 214 -218 214 -262 0 -51
24 -75 76 -75 35 0 59 22 69 62 6 22 1 33 -24 59 -27 26 -37 30 -64 25 -30 -6
-39 2 -253 215 -144 144 -223 216 -226 207z m510 -496 c3 -17 -2 -22 -17 -22
-14 0 -21 6 -21 18 0 38 33 41 38 4z"/>
<path d="M1137 1012 l-77 -77 0 -134 0 -133 -30 -28 c-37 -35 -39 -72 -5 -105
31 -32 69 -32 100 0 34 33 32 70 -5 107 l-30 30 0 122 0 121 79 80 c75 73 88
95 58 95 -7 0 -47 -35 -90 -78z m-39 -425 c4 -20 -25 -34 -40 -19 -15 15 -1
44 19 40 10 -2 19 -11 21 -21z"/>
<path d="M1776 1081 c-3 -5 28 -42 69 -82 l75 -72 0 -133 0 -132 -31 -31 c-25
-25 -30 -37 -25 -59 22 -89 146 -78 146 13 0 27 -7 39 -30 57 l-30 22 0 136 0
135 -78 78 c-79 78 -87 84 -96 68z m182 -499 c3 -17 -2 -22 -17 -22 -14 0 -21
6 -21 18 0 38 33 41 38 4z"/>
<path d="M1359 1063 c-1 -5 0 -39 1 -77 2 -67 1 -69 -36 -107 -38 -39 -39 -40
-35 -109 2 -46 -1 -70 -8 -70 -23 0 -51 -41 -51 -73 0 -80 110 -100 140 -26
15 34 -3 79 -38 94 -19 8 -22 17 -22 65 0 51 3 59 35 90 l35 34 0 93 c0 55 -4
93 -10 93 -5 0 -10 -3 -11 -7z m-38 -447 c-16 -19 -41 -10 -41 14 0 24 21 31
39 14 11 -10 12 -16 2 -28z"/>
<path d="M1490 736 c0 -217 -4 -336 -10 -336 -19 0 -50 -40 -50 -64 0 -39 36
-76 76 -76 74 0 103 88 44 132 l-30 22 0 326 c1 287 -1 325 -14 328 -14 3 -16
-34 -16 -332z m38 -404 c3 -16 -2 -22 -17 -22 -26 0 -36 17 -20 36 16 19 33
13 37 -14z"/>
<path d="M1630 972 l0 -88 40 -39 c38 -37 40 -42 40 -103 0 -56 -3 -66 -27
-86 -53 -46 -22 -130 47 -128 45 1 70 27 70 73 0 31 -6 43 -30 61 -28 21 -30
25 -30 93 0 70 -1 72 -41 110 l-41 40 4 78 c3 68 1 77 -14 77 -16 0 -18 -11
-18 -88z m120 -372 c0 -13 -7 -20 -20 -20 -13 0 -20 7 -20 20 0 13 7 20 20 20
13 0 20 -7 20 -20z"/>
</g>
</svg>
